<?xml version="1.0" encoding="UTF-8"?><svg id="Calque_2" xmlns="http://www.w3.org/2000/svg" xmlns:xlink="http://www.w3.org/1999/xlink" viewBox="0 0 145.32 145.32"><defs><style>.cls-1{fill:#14202a;}.cls-2{fill:#6f3d45;}.cls-3{fill:#f7efbc;}.cls-4{fill:url(#Dégradé_sans_nom_9-3);}.cls-5{fill:#b97466;}.cls-6{fill:url(#Dégradé_sans_nom_9-2);}.cls-7{fill:url(#Dégradé_sans_nom_9-4);}.cls-8{fill:url(#Dégradé_sans_nom_36);}.cls-9{fill:#1f2d37;}.cls-10{fill:url(#Dégradé_sans_nom_88);}.cls-11{fill:none;}.cls-12{fill:#05050a;}.cls-13{fill:url(#Dégradé_sans_nom_38);}.cls-14{fill:url(#Dégradé_sans_nom_9);}.cls-15{fill:#f7f1b8;}.cls-16{fill:url(#Dégradé_sans_nom_87);}.cls-17{fill:url(#Dégradé_sans_nom_39);}.cls-18{fill:url(#Dégradé_sans_nom_87-2);}</style><linearGradient id="Dégradé_sans_nom_88" x1="144.25" y1="-24.94" x2="7.3" y2="161.77" gradientUnits="userSpaceOnUse"><stop offset="0" stop-color="#fff07d"/><stop offset="1" stop-color="#f18f49"/></linearGradient><linearGradient id="Dégradé_sans_nom_87" x1="44.8" y1="31.52" x2="-14.84" y2="112.83" gradientUnits="userSpaceOnUse"><stop offset="0" stop-color="#fff07d"/><stop offset="1" stop-color="#ea543c"/></linearGradient><linearGradient id="Dégradé_sans_nom_87-2" x1="142.05" y1="-1.38" x2="96.5" y2="60.72" xlink:href="#Dégradé_sans_nom_87"/><linearGradient id="Dégradé_sans_nom_39" x1="52.45" y1="100.59" x2="59.79" y2="79.58" gradientUnits="userSpaceOnUse"><stop offset="0" stop-color="#ed6a1f"/><stop offset=".23" stop-color="#e44b1a"/><stop offset=".47" stop-color="#dd2e16"/><stop offset=".53" stop-color="#a12213"/><stop offset=".59" stop-color="#6a1810"/><stop offset=".65" stop-color="#3e100e"/><stop offset=".7" stop-color="#1e0a0d"/><stop offset=".75" stop-color="#0b070c"/><stop offset=".78" stop-color="#05060c"/></linearGradient><linearGradient id="Dégradé_sans_nom_38" x1="101.8" y1="98.59" x2="92.83" y2="83.4" gradientUnits="userSpaceOnUse"><stop offset="0" stop-color="#ed6a1f"/><stop offset=".04" stop-color="#ea621d"/><stop offset=".21" stop-color="#e34519"/><stop offset=".36" stop-color="#de3416"/><stop offset=".47" stop-color="#dd2e16"/><stop offset=".51" stop-color="#c62914"/><stop offset=".59" stop-color="#8e1f12"/><stop offset=".71" stop-color="#330e0e"/><stop offset=".76" stop-color="#05060c"/></linearGradient><linearGradient id="Dégradé_sans_nom_9" x1="100.92" y1="99.83" x2="94.4" y2="84.06" gradientUnits="userSpaceOnUse"><stop offset="0" stop-color="#f3e62b"/><stop offset="1" stop-color="#dc1715" stop-opacity="0"/></linearGradient><linearGradient id="Dégradé_sans_nom_9-2" x1="54.97" y1="97.63" x2="56.53" y2="84.99" xlink:href="#Dégradé_sans_nom_9"/><linearGradient id="Dégradé_sans_nom_9-3" x1="55.42" y1="96.92" x2="56.68" y2="86.78" xlink:href="#Dégradé_sans_nom_9"/><linearGradient id="Dégradé_sans_nom_9-4" x1="100.85" y1="99.86" x2="94.33" y2="84.09" xlink:href="#Dégradé_sans_nom_9"/><linearGradient id="Dégradé_sans_nom_36" x1="76.52" y1="104.47" x2="76.59" y2="102.91" gradientUnits="userSpaceOnUse"><stop offset="0" stop-color="#f7f1b8"/><stop offset="1" stop-color="#f7f1b8" stop-opacity="0"/></linearGradient></defs><g id="Calque_1-2"><rect class="cls-10" width="145.32" height="145.32" rx="27.52" ry="27.52"/><path class="cls-16" d="m18.35,33.36H0v79.61h18.35c11.06,0,20.03-8.97,20.03-20.03v-39.54c0-11.06-8.97-20.03-20.03-20.03Z"/><path class="cls-18" d="m117.8,0h-30.63c-2.2,5.6-3.42,11.69-3.42,18.07h0c0,27.35,22.17,49.53,49.53,49.53h12.04V27.52C145.32,12.32,133,0,117.8,0Z"/><polygon class="cls-12" points="42.28 117.91 42.28 117.91 42.28 117.91 42.28 117.91"/><path class="cls-12" d="m128.76,91.48c5.5-4.54,7.32-10.27,7.32-10.27-2.59,3-7.51,3.3-7.51,3.3,2.26-.72,4.21-2.42,4.21-2.42-6.28.88-8.23-1.35-8.23-1.35.36-4.62-.8-11.86-1.02-14.34-.22-2.48.44-3.06.44-3.06,4.71-7.51,6.14-41.59,6.17-44.04s.08-4.6-.88-5.31c-.96-.72-3.58.14-3.58.14-13.02,2.45-31.07,14.15-32.92,15.22-1.84,1.07-2.39.39-2.39.39-1.24-.58-9.69-3.22-16.76-3.5-7.07-.28-12.91,1.62-14.61,2.15-1.71.52-3.52-1.16-3.52-1.16-10.43-7.79-29.23-14.26-29.23-14.26,0,0-5.64-1.82-6.28-.69-.63,1.13-.65,2.59-.65,2.59-.99,23.41,3.76,43.68,4.38,45.17.62,1.49.41,2.56.41,2.56,0,0-.5,2.23-1.2,6.69-.7,4.46-.54,8.96-.54,8.96-1.45,1.73-5.12,2.44-5.12,2.44l3.76.21c-1.61,1.86-4.13,1.49-4.13,1.49.74.95,2.39,1.2,2.39,1.2-3.96,2.97-10.03-2.89-10.03-2.89,1.36,6.28,8.26,10.9,8.26,10.9-5.53-.04-7.39-1.86-7.39-1.86,3.22,5.37,9.04,8.79,9.04,8.79-1.07-.29-4.62-.21-4.62-.21.58.7,6.07,3.67,6.07,3.67-.54-.12-4.42,0-4.42,0,1.57,1.69,6.98,3.84,6.98,3.84-.74.04-2.11.21-2.11.21,5.57,3.26,14.82,7.55,14.82,7.55,0,0,2.81,2.46,5.12,3.76.07.04.15.08.24.12.07.03.14.07.22.1.02.01.05.02.07.03.1.04.21.09.33.14,0,0,.01,0,.02,0,.13.05.26.1.41.16,0,0,0,0,0,0,2.5.95,7.8,2.53,14.17,3.85l21.93,11.63,16.9-10.15c1.72-.24,3.02-.51,4.09-.77,3.47-.83,7.13-4.05,7.13-4.05l-1.62-.72s1.76.39,4.49-1.21c.28-.16.67-.38,1.14-.63,0,0,0,0,0,0,.89-.48,2.08-1.09,3.4-1.76.02-.01.05-.02.07-.04.18-.09.36-.18.54-.27,0,0,.01,0,.02,0,1.53-.77,3.19-1.59,4.72-2.35.05-.02.1-.05.15-.07.16-.08.32-.16.47-.23.03-.01.06-.03.09-.04.56-.27,1.09-.54,1.59-.78.02-.01.04-.02.07-.03.43-.21.83-.41,1.2-.59.13-.06.26-.13.38-.18.16-.08.31-.15.45-.22.46-.22.83-.41,1.08-.53.03-.02.07-.03.1-.05.03-.02.07-.03.1-.05.01,0,.03-.01.04-.02.01,0,.02,0,.03-.02.07-.03.11-.05.11-.05h-2.39c2.34-.88,5.45-3.63,5.45-3.63-.94-.14-2.72-.11-2.72-.11,3.72-.36,4.82-2.61,4.82-2.61-2.12.85-3.85.17-3.85.17,3.61-1.76,6.58-7.51,6.58-7.51-2.26.39-3.99.08-3.99.08,4.62-2.2,5.56-4.05,5.56-4.05-2.5.63-5.78.58-5.78.58Z"/><path class="cls-1" d="m73.58,106.13s0,0,0,0c0,0-2.95-2.15-3.14-2.96-.07-.31-.03-.67.04-1.01-.03-.04-.07-.08-.1-.11-.88-.99-5.34-1-5.34-1l1.98-.72s-.88-.06-2.26-.17c-1.38-.11-5.69,3.29-12.02,1.75-6.33-1.54-9.62-8.52-12.64-10.06-3.03-1.54-5.56-1.82-5.56-1.82,0,0,1.43.44,2.64,1.27s.06,1.38.06,1.38c-1.76-1.16-5.06-2.2-5.06-2.2l2.86,3.14-2.86-.83,3.08,3.3h-1.82c1.27,1.27,3.69,2.48,3.69,2.48l-3.69-.28c1.21,1.76,4.35,3.14,4.35,3.14h-2.59c.44,1.32,4.9,4.18,4.9,4.18l-2.37-.77c2.75,3.36,6.28,3.96,6.28,3.96h-2.92c2.53,2.2,11.61,2.62,11.61,2.62l-4.29,1.23c5.72,3.3,15.14-.33,15.14-.33l1.21,1.27.5-1.21s3.52,1.71,6.66,0c2.69-1.46,3.48-3.04,3.65-3.47l-1.99-2.8Z"/><path class="cls-9" d="m75.57,108.93l-1.99-2.8s0,0,0,0c0,0-2.37-1.73-2.99-2.67-.81.1-1.54.24-2.09.45-2.23.87-2.68,2.85-2.68,2.85l-4.21-1.2,3.8,2.11-4.91.54,5.04.57s.25.95,1.36,1.2l-1.2,1.16,2.11-.78s1.11.99,3.55.7c1.15-.14,2.3-.55,3.41-.87.5-.59.73-1.06.81-1.26Z"/><path class="cls-1" d="m111.75,98.69c4.57-1.4,4.73-3.69,4.73-3.69-1.32.91-3.28.69-3.28.69,1.27-.72,1.6-1.6,1.6-1.6-1.16.91-3.08.69-3.08.69,1.9-.85,2.81-2.28,2.81-2.28,0,0-2.92.14-4.43,1.18-1.51,1.05-4.27,6.05-6.06,7.62-1.79,1.57-4.82,1.87-8.94,1.49s-7.84-3.28-7.84-3.28l.63.91s-.61-.39-2.89,0c-.6.1-1.45.76-2.37,1.67.02.52-.02,1.13-.24,1.53-.45.81-.5.83-1.9,1.49-.41.19-.95.67-1.51,1.26-1.2,1.57-2.08,2.83-2.08,2.83,0,0,1.79,2.27,5.13,3.67s5.94-.25,5.94-.25c0,0,2.89.66,7.43.58,4.54-.08,7.14-1.71,7.14-1.71-1.65-.47-3.84-.61-3.84-.61,6.77-.25,8.38-1.69,8.38-1.69-.91-.41-2.23-.41-2.23-.41,4.25-.54,4.5-1.4,4.5-1.4l-3.01.11c4.95-1.35,9.44-6.19,9.44-6.19-1.32-.44-3.47-.45-3.47-.45,2.23-.48,4.16-2.66,4.16-2.66-1.1.72-4.73.5-4.73.5Z"/><path class="cls-5" d="m73.97,102.26h5.23c.83,0,1.27.98.72,1.61l-2.67,3c-.39.44-1.07.43-1.45-.01l-2.56-3c-.54-.63-.09-1.59.73-1.59Z"/><path class="cls-17" d="m66.88,92.07c0,6.22-4.82,9.17-11.27,9.17s-10.9-4.51-10.9-10.73,4.03-11.56,10.49-11.56,11.68,6.9,11.68,13.13Z"/><path class="cls-13" d="m107.96,91.08c0,6.16-4.65,10.53-10.65,10.53s-10.86-3.96-10.86-10.11c0-3.18,4.65-10.73,10.65-10.73s10.86,2.15,10.86,10.32Z"/><path class="cls-14" d="m99.14,80.85c4.47.61,6.82,4.43,7.55,9.23.82,5.39-2.15,8.73-6.21,9.65,2.73-1.44,4.82-4.68,4.97-9.03.03-.78-.07-1.5-.25-2.16.03.26.05.52.05.8,0,4.48-4.56,9.29-8.55,9.29s-6.71-3.63-6.71-8.11c0-.46-.35.46-.35,1.43,0,3.17,1.56,5.99,3.86,7.49-4.27-1.2-4.65-4.28-5.27-9.06-.33-2.54.67-4.86,2.37-6.58-2.54,2.47-4.15,5.83-4.15,7.7,0,6.16,4.86,10.11,10.86,10.11s10.65-4.37,10.65-10.53c0-7.23-3.8-9.74-8.83-10.22Z"/><path class="cls-9" d="m92.19,110.48l-5.99-1.44,5.12-.45-4.87-.37s.62-2.02-1.65-3.49c-.62-.4-1.53-.68-2.54-.89-.35.6-.51.68-1.78,1.27-.41.19-.95.67-1.51,1.26-1.2,1.57-2.08,2.83-2.08,2.83,0,0,.19.23.53.58.26.02.52.08.76.17,1.94.7,7.84,2.02,7.84,2.02l-3.18-1.4s1.9-.08,2.64-.87l6.69.78Z"/><path class="cls-1" d="m76.3,110.82s-1.87,2.64-4.43,2.97c0,0,2.11,1.27,4.72,1.32s4.06-1.68,4.06-1.68c0,0-2.28-.63-4.35-2.62Z"/><path class="cls-11" d="m41.81,54.59s-.28,2.26,1.43,3.63,3.47,1.1,3.47,1.1c0,0-2.53-1.98-4.9-4.73Z"/><path class="cls-11" d="m102.39,56.44s3.43-5,3.18-7.18c0,0,1.72,1.86.01,4.67s-3.19,2.52-3.19,2.52Z"/><path class="cls-11" d="m107.1,50.74s.83,4.71-4.71,8.96c0,0,3.63-1.28,5.04-3.01s1.57-5.12-.33-5.94Z"/><path class="cls-11" d="m105.03,60.57s4-1.86,4.42-6.19c0,0,2.15,5.45-4.42,6.19Z"/><path class="cls-15" d="m54.95,85.92c-2.39-.1-3.01,2.56-2.97,3.59s1.49,3.72,2.97,3.8,2.93-1.82,2.93-4.09-.95-3.22-2.93-3.3Z"/><path class="cls-6" d="m66.6,94.49c-.91,2.4-3.39,4.02-3.39,4.02,0,0,1.2-.99,1.9-2.56.7-1.57-.74-1.61-.74-1.61-.35,1.68-1.25,5.48-6.15,5.73,2.6-1.19,4.54-4.54,3.67-4.76-1.07-.27-2.02,2.54-6.09,2.54-11.33-.5-6.63-13.13-6.63-13.13l1.82-3.96s-4.87,3.43-4.21,9.91c.4,3.9,2.55,6.63,4.94,8.2-8.92-3.54-5.27-14.4-5.27-14.4l-.4.2c-.86,1.73-1.33,3.72-1.33,5.83,0,6.22,4.45,10.73,10.9,10.73,5.55,0,9.87-2.18,10.98-6.74Z"/><path class="cls-4" d="m51.56,91.49s-.12,0-.09.06c1,1.69,4.06,5.43,7.32,3.44s.99-2.27-.08-1.69-4.21,1.58-7.15-1.81Z"/><path class="cls-1" d="m62.12,72.15s-1.93,4.84-.72,7.05,6.99,5.17,6.39,14.81c0,0-4.51-7.71-12.5-10.62-7.98-2.92-17.17-1.93-17.17-1.93l2.42,1.32s-.88,4.24-5.34,4.62-5.45-3.85-5.34-5.34c0,0,1.49.77,2.42.44,0,0-2.77-.99-2.43-6.22,0,0,1.99,2.09,3.97,2.48,0,0-6.72-2.81-1.71-16.57s17.67-23.28,23.17-25.49c0,0-11.61-8.86-21.74-12.39,0,0,6.94,3.96,9.69,6.5s4.79,3.19,4.79,3.19c0,0-4.73-.72-7.1-2.53s-8.92-6.94-15.14-9.08c0,0-4.24-1.82-5.01-1.21v-5.5s0-1.27,2.86-.66,16.18,5.06,22.68,9.8c6.5,4.73,10.4,5.78,11.5,6s2.53-.06,4.4-.99,5.05-1.6,10.48-1.6,12.97,2.09,14.73,2.81,3.69,1.43,4.57.99,9.3-6,13.54-8.2,18.94-8.42,21.14-7.76,1.76,8.48,1.76,8.48c0,0-5.45-.06-9.63,2.7s-7.21,6.17-9.58,7.1-3.69.33-3.69.33c0,0,4.68-2.75,6.77-5.12s4.73-3.91,4.73-3.91c0,0-4.51,1.71-7.21,4.46s-4.18,1.38-8.48,3.41-6.28,3.91-7.43,3.8c0,0,10.79,3.36,18,15.69,7.21,12.33,6.88,13.65,6.88,17.12s-1.21,5.94-1.21,5.94c0,0,1.27-.33,2.09-1.71,0,0,.11,3.14-.11,4.84s-2.15,3.08-2.15,3.08l1.6.11s.22,1.32-.39,2.59-1.98,2.97-4.4,2.26-4.24-4.79-4.24-4.79l2.15-1.65s-6.88-.99-14.26,2.53-12.33,11.01-12.33,11.01c0,0,.88-6.5,2.86-9.85s4.18-3.25,4.18-6.33-1.05-5.94-1.05-5.94c0,0,.72,4.9-.5,6s-2.37.06-2.75-.61-.99-4.46-.99-4.46c0,0-.28,3.19-1.27,4.73s-2.04.72-1.98-.22-.11-2.7-.11-2.7c0,0-.39,3.52-2.2,4.62s-3.03,1.16-3.91-.11l-.52-.83s-.95,1.75-1.9,1.75-3.1-.95-3.43-2.33c0,0-.23,1.96-1.4,1.84s-1.8-3.26-1.8-3.26c0,0-.52,2.29-1.3,2.46s-1.75-3.67-1.75-3.67c0,0-.33,3.14-2.04,3.28s-1.57-2.83-1.57-3.72.54-3.78.54-3.78l-.57.94Z"/><path class="cls-9" d="m126.69,16.06c-2.2-.66-16.9,5.56-21.14,7.76-4.24,2.2-12.66,7.76-13.54,8.2-.21.1-.47.14-.78.13h0c-.24,0-.51-.05-.79-.11-.03,0-.06-.01-.09-.02-.56-.12-1.18-.33-1.82-.57-.06-.02-.12-.04-.18-.07-.3-.12-.61-.24-.91-.36-1.76-.72-9.3-2.81-14.73-2.81s-8.61.66-10.48,1.6c-.25.12-.48.23-.72.33-.03.02-.07.03-.1.04-.2.08-.4.16-.58.23-.02,0-.03.01-.05.02-.21.07-.41.14-.6.19,0,0,0,0,0,0-.21.06-.4.1-.59.14h0c-.66.13-1.25.14-1.76.03-1.1-.22-5.01-1.27-11.5-6-6.5-4.73-19.82-9.19-22.68-9.8-2.86-.61-2.86.66-2.86.66v5.5c.77-.61,5.01,1.21,5.01,1.21,6.22,2.15,12.77,7.27,15.14,9.08,2.37,1.82,7.1,2.53,7.1,2.53,0,0-2.04-.66-4.79-3.19s-9.69-6.5-9.69-6.5c9.25,3.22,19.74,10.89,21.49,12.19h0c.08.06.14.1.18.14,0,0,.01.01.02.01.03.02.06.04.06.04-.3.12-.63.27-.98.44-.02.01-.04.02-.06.03-3.62,1.75-9.3,5.86-14.27,11.75.44,1.83,3.15,1.7,3.15,1.7,0,0,.17,6.15,5.7,7.18,0,0-2.06-1.44-2.85-3.51-.78-2.06-.62-3.34-.62-3.34,0,0,.7,2.46,2.56,3.65,1.86,1.18,3.26.85,3.26.85,0,0-3.22-1.28-3.8-2.97-.58-1.69-.45-2.23-.45-2.23,0,0,.45,1.36,1.36,1.16s1.32-2.56,1.32-2.56c0,0-.25,3.92,3.67,3.14,0,0-1.82-.95-1.94-6.07,0,0,.25,5.08,4.38,4.33,0,0,2.44-.54,1.24-3.18,0,0,.62,1.32,3.18.58,2.56-.74,5.12-2.23,5.12-2.23,0,0-1.4,2.15.17,2.23,1.57.08,2.89-1.03,2.89-1.03,0,0-.17,2.39.83,2.27.99-.12,1.9-1.73,1.9-1.73,0,0,1.44,5.24,2.35,5.04.91-.21,1.49-7.35,1.49-7.35,0,0,1.24,4.46,1.73,4.46s1.16-5,1.16-5c0,0,1.4,5.33,2.52,5.45.6.07.91-2,1.07-3.94.13,1.22.56,2.44,1.66,2.95,2.56,1.2,4,.83,4,.83,0,0,5.66,2.39,8.42,1.28,0,0-.74,1.78.33,1.94,1.07.17,3.34-2.27,3.34-2.27,0,0-.08,3.54-1.11,4.06,0,0,2.19.56,3.84-1.79s3.1-7.47-1.69-9.91c0,0,1.61.75,2.37-.72-2.13-1.66-4.09-2.81-5.6-3.58,0,0,0,0,0,0-.08-.04-.14-.07-.22-.11-.12-.06-.24-.12-.35-.17-.08-.04-.16-.08-.24-.11-.12-.06-.24-.11-.35-.16-.06-.03-.12-.05-.18-.08-.12-.05-.23-.1-.34-.15-.05-.02-.09-.04-.14-.06-.11-.05-.21-.09-.31-.13-.03-.01-.06-.03-.1-.04-.1-.04-.19-.07-.27-.1-.02,0-.04-.02-.06-.02-.08-.03-.15-.05-.21-.08-.01,0-.03-.01-.04-.01-.06-.02-.11-.04-.14-.05,0,0,0,0,0,0-.03-.01-.05-.02-.05-.02.11.01.24,0,.37-.04.09-.02.18-.04.28-.08,0,0,0,0,0,0h0c1.23-.41,3.19-1.98,6.78-3.68,4.29-2.04,5.78-.66,8.48-3.41,2.7-2.75,7.21-4.46,7.21-4.46,0,0-2.64,1.54-4.73,3.91-2.09,2.37-6.77,5.12-6.77,5.12,0,0,1.32.61,3.69-.33,2.37-.94,5.39-4.35,9.58-7.1,4.18-2.75,9.63-2.7,9.63-2.7,0,0,.44-7.82-1.76-8.48Z"/><path class="cls-15" d="m73.01,27.91c-5.94,0-10.75.78-10.75,1.74,0,.49,1.24.93,3.23,1.24,1.31-.6,4.2-1.02,7.56-1.02s6.22.41,7.54,1.01c1.95-.31,3.16-.75,3.16-1.23,0-.96-4.81-1.74-10.75-1.74Z"/><path class="cls-7" d="m100.38,93.54s-.88,1-2.04,1.06-1.38.04-1.65.44,1.03,1.28,2.79,0,.89-1.5.89-1.5Z"/><path class="cls-3" d="m99.09,87.24c1.57-.1,3.3,1.61,2.97,3.94s-1.94,3.57-2.81,3.53-3.1-2.02-3.26-3.53,1.2-3.82,3.1-3.94Z"/><path class="cls-2" d="m20.78,20.96s3.63,0,8.48,9.03c4.84,9.03,6.94,12,6.94,12,0,0-3.25-2.31-7.71-3.74,0,0,4.35,3.36,5.23,6.22,0,0-3.03-4.4-5.5-5.72,0,0,4.9,4.95,4.9,7.87,0,0-2.26-2.92-4.02-5.78s-4.18-4.13-4.18-4.13c0,0,1.98,3.03,2.7,6s3.36,7.32,3.36,7.32l-3.52-5.45s2.15,6.17,2.04,6.99-2.75-1.65-2.75-1.65c0,0,1.05,3.89.77,5.31,0,0-3.03-1.12-3.25-1.78s-1.93-10.18-2.2-16.46-1.27-16.02-1.27-16.02Z"/><path class="cls-2" d="m76.09,107.07c-.02-.87-.08-2.42-.19-2.81-.17-.55-1.54-.41-2.17-.38-.17,0-.22.13-.22.29l2.29,2.68c.08.1.18.16.29.22Z"/><path class="cls-2" d="m79.45,103.88c-.63-.03-2.01-.17-2.17.38-.11.38-.17,1.85-.19,2.73.06-.04.12-.07.17-.12l2.41-2.71c0-.16-.05-.27-.22-.28Z"/><path class="cls-8" d="m76.59,103.57c-.88,0-1.68-.29-2.32-.75.34.75,1.25,1.28,2.32,1.28s1.98-.54,2.32-1.28c-.64.46-1.44.75-2.32.75Z"/><path class="cls-5" d="m26.61,46.61c.14.23.22.33.22.33,0,0-.08-.12-.22-.33Z"/><path class="cls-5" d="m23.78,40.34c.73,2.92,2.26,5.41,2.83,6.28-.38-.64-1.15-2.33-1.76-6.19-.83-5.28-1.73-9.54-1.73-9.54l4.21,2.68c-2.81-1.98-2.97-7.76-4.29-9.83-.82-1.28-1.57-1.48-2.11-1.27.29,2.98.91,9.74,1.12,14.51.07,1.6.23,3.42.44,5.25v-2.92c0,1.38.88,3.1.88,3.1-.5-.91-.5-5.7.41-2.06Z"/><path class="cls-2" d="m128.45,24.54s-8.2,7.05-12.61,18.06c0,0,4.95-2.53,6.88-2.48,0,0-1.27,3.69-1.1,7.21s-1.76,8.48-1.76,8.48c0,0,3.58-2.15,3.41-3.3,0,0-.22,5.06-1.6,5.78,0,0,3.41-1.82,3.69-4.35s3.08-29.39,3.08-29.39Z"/><path class="cls-15" d="m21.39,15.73s-.22-1.49.72-1.49,11.78,2.31,20.7,7.1,12.61,8.97,12.61,8.97c0,0-25.54-15.3-34.02-14.59Z"/><path class="cls-15" d="m128.45,17.22s-.61-1.87-1.76-1.76-18.69,5.46-27.1,11.84c0,0,23.36-11.02,28.86-10.08Z"/></g></svg>